<svg xmlns="http://www.w3.org/2000/svg" viewBox="0 0 100 100">
  <defs>
    <linearGradient id="grad1" x1="0%" y1="0%" x2="100%" y2="100%">
      <stop offset="0%" style="stop-color:#3b82f6;stop-opacity:1" />
      <stop offset="100%" style="stop-color:#8b5cf6;stop-opacity:1" />
    </linearGradient>
    <linearGradient id="grad2" x1="0%" y1="0%" x2="100%" y2="100%">
      <stop offset="0%" style="stop-color:#10b981;stop-opacity:1" />
      <stop offset="100%" style="stop-color:#06b6d4;stop-opacity:1" />
    </linearGradient>
  </defs>
  
  <!-- Map Pin Shape -->
  <path d="M50 15 C35 15 25 25 25 40 C25 55 50 75 50 75 C50 75 75 55 75 40 C75 25 65 15 50 15 Z" 
        fill="url(#grad1)" stroke="#1e40af" stroke-width="2"/>
  
  <!-- Inner Circle -->
  <circle cx="50" cy="40" r="12" fill="white" opacity="0.9"/>
  
  <!-- Airplane Icon -->
  <g transform="translate(50, 40) scale(0.5)">
    <path d="M0,-12 L-8,8 L-4,8 L0,4 L4,8 L8,8 Z M0,-12 L0,12" 
          fill="url(#grad2)" stroke="#065f46" stroke-width="1.5"/>
    <path d="M-12,0 L-6,2 L-6,-2 Z M12,0 L6,2 L6,-2 Z" 
          fill="url(#grad2)"/>
  </g>
  
  <!-- Route Line (decorative) -->
  <path d="M30,85 Q40,70 50,75 T70,85" 
        stroke="url(#grad2)" stroke-width="2" fill="none" 
        stroke-dasharray="3,3" opacity="0.6"/>
</svg>
